<svg width="202" height="202" viewBox="215 0 202 202" fill="none" xmlns="http://www.w3.org/2000/svg">
<path d="M316.004 202.008C371.787 202.008 417.008 156.787 417.008 101.004C417.008 45.221 371.787 0.00012207 316.004 0.00012207C260.221 0.00012207 215 45.221 215 101.004C215 156.787 260.221 202.008 316.004 202.008Z" fill="#5BEB9D"/>
<path d="M353.808 75.071C353.808 70.495 350.099 66.7855 345.523 66.7855H270.952C266.376 66.7855 262.667 70.495 262.667 75.071C262.667 79.647 266.376 83.3566 270.952 83.3566H337.237V149.641C337.237 154.217 340.947 157.927 345.523 157.927C350.099 157.927 353.808 154.217 353.808 149.641V75.071ZM252.804 179.507L351.381 80.9298L339.664 69.2123L241.087 167.789L252.804 179.507Z" fill="white"/>
</svg>
