<svg width="160" height="159" viewBox="0 0 160 159" fill="none" xmlns="http://www.w3.org/2000/svg">
<path d="M79.7 159C123.607 159 159.2 123.407 159.2 79.5C159.2 35.5934 123.607 0 79.7 0C35.7934 0 0.200012 35.5934 0.200012 79.5C0.200012 123.407 35.7934 159 79.7 159Z" fill="#6DC973"/>
<path d="M57.4 87C60.9899 87 63.9 84.0899 63.9 80.5C63.9 76.9101 60.9899 74 57.4 74C53.8102 74 50.9 76.9101 50.9 80.5C50.9 84.0899 53.8102 87 57.4 87Z" fill="white"/>
<path opacity="0.87" d="M80.4 87C83.9899 87 86.9 84.0899 86.9 80.5C86.9 76.9101 83.9899 74 80.4 74C76.8102 74 73.9 76.9101 73.9 80.5C73.9 84.0899 76.8102 87 80.4 87Z" fill="white"/>
<path opacity="0.45" d="M103.4 87C106.99 87 109.9 84.0899 109.9 80.5C109.9 76.9101 106.99 74 103.4 74C99.8102 74 96.9 76.9101 96.9 80.5C96.9 84.0899 99.8102 87 103.4 87Z" fill="white"/>
</svg>
