<svg width="1093" height="202" viewBox="0 0 1093 202" fill="none" xmlns="http://www.w3.org/2000/svg">
<path d="M184.054 116.149L184.178 115.654L183.312 115.036L182.57 114.17C166.737 94.2556 143.112 82.7523 117.755 82.7523C97.4694 82.7523 77.926 90.1738 62.8356 103.656L60.2381 105.883L84.1106 135.198L86.9556 132.6C95.3666 124.808 106.375 120.478 117.755 120.478C124.682 120.478 131.608 122.086 137.793 125.179C128.887 141.63 111.57 152.02 92.7691 152.02C64.5673 152.02 41.5606 129.013 41.5606 100.811C41.5606 72.6095 64.5673 49.6028 92.7691 49.6028C108.107 49.6028 122.455 56.4058 132.227 68.2803L134.453 70.8778L167.603 46.0157L165.253 43.1708C147.441 20.9062 121.095 8.16589 92.6454 8.16589C41.5606 8.16589 0 49.7265 0 100.811C0 151.896 41.5606 193.457 92.6454 193.457C137.175 193.457 175.519 161.792 183.683 118.005L183.807 117.386L184.425 116.644L184.054 116.149Z" fill="#FFFFFF"/>
<path d="M457.781 13.2379H503.176V150.907H555.745V190.736H457.905V13.2379H457.781Z" fill="#FFFFFF"/>
<path d="M647.651 165.132L638.25 190.86H589.516L660.762 13.2379H696.509L767.014 190.86H717.784L709.126 165.132H647.651ZM660.02 129.137H697.251L679.069 68.5283H678.821H678.327L660.02 129.137Z" fill="#FFFFFF"/>
<path d="M815.375 13.2378H860.77V190.86H815.375V13.2378Z" fill="#FFFFFF"/>
<path d="M922.866 13.2379H961.953L1051.01 124.808L1051.51 124.313L1049.53 13.2379H1092.94V190.86H1053.61L965.416 82.8766L964.921 83.124L966.158 190.86H922.742V13.2379H922.866Z" fill="#FFFFFF"/>
<path d="M316.004 202.008C371.787 202.008 417.008 156.787 417.008 101.004C417.008 45.221 371.787 0.00012207 316.004 0.00012207C260.221 0.00012207 215 45.221 215 101.004C215 156.787 260.221 202.008 316.004 202.008Z" fill="#5BEB9D"/>
<path d="M353.808 75.071C353.808 70.495 350.099 66.7855 345.523 66.7855H270.952C266.376 66.7855 262.667 70.495 262.667 75.071C262.667 79.647 266.376 83.3566 270.952 83.3566H337.237V149.641C337.237 154.217 340.947 157.927 345.523 157.927C350.099 157.927 353.808 154.217 353.808 149.641V75.071ZM252.804 179.507L351.381 80.9298L339.664 69.2123L241.087 167.789L252.804 179.507Z" fill="white"/>
</svg>
