<svg width="1442" height="267" viewBox="0 0 1442 267" fill="none" xmlns="http://www.w3.org/2000/svg">
<path d="M243.056 153.173L243.22 152.521L242.078 151.705L241.099 150.563C220.22 124.301 189.064 109.131 155.624 109.131C128.872 109.131 103.099 118.918 83.1983 136.698L79.7727 139.634L111.255 178.294L115.007 174.868C126.099 164.592 140.617 158.882 155.624 158.882C164.759 158.882 173.893 161.003 182.049 165.081C170.305 186.776 147.468 200.478 122.673 200.478C85.482 200.478 55.1415 170.138 55.1415 132.946C55.1415 95.7548 85.482 65.4144 122.673 65.4144C142.9 65.4144 161.822 74.386 174.709 90.0456L177.645 93.4711L221.361 60.6839L218.262 56.9321C194.773 27.5704 160.028 10.769 122.51 10.769C55.1415 10.769 0.333008 65.5775 0.333008 132.946C0.333008 200.315 55.1415 255.124 122.51 255.124C181.234 255.124 231.801 213.365 242.567 155.62L242.73 154.804L243.546 153.826L243.056 153.173Z" fill="white"/>
<path d="M604.043 17.4568H663.908V199.01H733.234V251.535H604.206V17.4568H604.043Z" fill="white"/>
<path d="M854.433 217.769L842.036 251.698H777.766L871.724 17.4568H918.865L1011.84 251.698H946.922L935.504 217.769H854.433ZM870.745 170.301H919.844L895.865 90.3717H895.539H894.887L870.745 170.301Z" fill="white"/>
<path d="M1075.62 17.4568H1135.49V251.698H1075.62V17.4568Z" fill="white"/>
<path d="M1217.38 17.4568H1268.92L1386.37 164.592L1387.02 163.939L1384.41 17.4568H1441.67V251.698H1389.8L1273.49 109.294L1272.84 109.62L1274.47 251.698H1217.21V17.4568H1217.38Z" fill="white"/>
<path d="M417.066 266.4C490.631 266.4 550.266 206.764 550.266 133.2C550.266 59.6357 490.631 0 417.066 0C343.502 0 283.866 59.6357 283.866 133.2C283.866 206.764 343.502 266.4 417.066 266.4Z" fill="#5BEB9D"/>
<path d="M360.525 151.644C368.923 151.644 375.731 144.836 375.731 136.438C375.731 128.039 368.923 121.231 360.525 121.231C352.127 121.231 345.319 128.039 345.319 136.438C345.319 144.836 352.127 151.644 360.525 151.644Z" fill="white"/>
<path d="M417.006 151.644C425.404 151.644 432.213 144.836 432.213 136.438C432.213 128.039 425.404 121.231 417.006 121.231C408.608 121.231 401.8 128.039 401.8 136.438C401.8 144.836 408.608 151.644 417.006 151.644Z" fill="white"/>
<path d="M473.487 151.644C481.885 151.644 488.694 144.836 488.694 136.438C488.694 128.039 481.885 121.231 473.487 121.231C465.089 121.231 458.281 128.039 458.281 136.438C458.281 144.836 465.089 151.644 473.487 151.644Z" fill="white"/>
</svg>