<svg width="155" height="48" viewBox="0 0 155 48" fill="none" xmlns="http://www.w3.org/2000/svg">
<path d="M26.4999 16.4011L26.5173 16.3313L26.3951 16.2439L26.2903 16.1217C24.0545 13.3095 20.7182 11.685 17.1375 11.685C14.2729 11.685 11.5131 12.733 9.38208 14.637L9.01528 14.9514L12.3864 19.0911L12.7882 18.7243C13.9759 17.6238 15.5305 17.0125 17.1375 17.0125C18.1156 17.0125 19.0938 17.2396 19.9672 17.6762C18.7095 19.9994 16.2641 21.4666 13.6091 21.4666C9.62662 21.4666 6.37774 18.2177 6.37774 14.2352C6.37774 10.2527 9.62662 7.00383 13.6091 7.00383C15.775 7.00383 17.8012 7.96452 19.1811 9.64136L19.4955 10.0082L24.1767 6.49728L23.8449 6.09554C21.3296 2.95146 17.6091 1.15234 13.5917 1.15234C6.37774 1.15234 0.508789 7.0213 0.508789 14.2352C0.508789 21.4491 6.37774 27.3181 13.5917 27.3181C19.8798 27.3181 25.2946 22.8465 26.4475 16.6631L26.4649 16.5758L26.5523 16.471L26.4999 16.4011Z" fill="#7F12B2"/>
<path d="M65.1548 1.86914H71.5652V21.31H78.9887V26.9345H65.1723V1.86914H65.1548Z" fill="#7F12B2"/>
<path d="M91.9667 23.3188L90.6392 26.9519H83.7572L93.8183 1.86914H98.8663L108.823 26.9519H101.871L100.648 23.3188H91.9667ZM93.7135 18.2358H98.9711L96.4034 9.67694H96.3685H96.2986L93.7135 18.2358Z" fill="#7F12B2"/>
<path d="M115.652 1.86914H122.062V26.9519H115.652V1.86914Z" fill="#7F12B2"/>
<path d="M130.831 1.86914H136.351L148.927 17.6245L148.997 17.5546L148.718 1.86914H154.848V26.9519H149.294L136.84 11.7031L136.77 11.7381L136.945 26.9519H130.814V1.86914H130.831Z" fill="#7F12B2"/>
<path d="M45.1331 28.5264C53.0104 28.5264 59.3963 22.1405 59.3963 14.2632C59.3963 6.38585 53.0104 0 45.1331 0C37.2557 0 30.8699 6.38585 30.8699 14.2632C30.8699 22.1405 37.2557 28.5264 45.1331 28.5264Z" fill="#5BEB9D"/>
<path d="M39.0785 16.2391C39.9778 16.2391 40.7068 15.51 40.7068 14.6107C40.7068 13.7114 39.9778 12.9824 39.0785 12.9824C38.1792 12.9824 37.4502 13.7114 37.4502 14.6107C37.4502 15.51 38.1792 16.2391 39.0785 16.2391Z" fill="#7F12B2"/>
<path d="M45.1266 16.2391C46.0259 16.2391 46.7549 15.51 46.7549 14.6107C46.7549 13.7114 46.0259 12.9824 45.1266 12.9824C44.2273 12.9824 43.4983 13.7114 43.4983 14.6107C43.4983 15.51 44.2273 16.2391 45.1266 16.2391Z" fill="#7F12B2"/>
<path d="M51.1747 16.2391C52.074 16.2391 52.803 15.51 52.803 14.6107C52.803 13.7114 52.074 12.9824 51.1747 12.9824C50.2754 12.9824 49.5464 13.7114 49.5464 14.6107C49.5464 15.51 50.2754 16.2391 51.1747 16.2391Z" fill="#7F12B2"/>
<path d="M129.822 44V35.894H132.879C133.721 35.894 134.358 36.0909 134.79 36.4846C135.222 36.8783 135.438 37.3724 135.438 37.9668C135.438 38.4841 135.3 38.8971 135.022 39.2059C134.744 39.507 134.408 39.7115 134.014 39.8196C134.323 39.8814 134.597 40.0049 134.836 40.1902C135.083 40.3755 135.276 40.6071 135.415 40.885C135.554 41.1629 135.624 41.464 135.624 41.7882C135.624 42.2051 135.52 42.5834 135.311 42.9231C135.11 43.255 134.813 43.5175 134.419 43.7105C134.026 43.9035 133.543 44 132.972 44H129.822ZM131.05 39.368H132.729C133.2 39.368 133.559 39.2599 133.806 39.0438C134.053 38.8199 134.176 38.5149 134.176 38.1289C134.176 37.7507 134.053 37.4496 133.806 37.2257C133.566 37.0018 133.2 36.8899 132.706 36.8899H131.05V39.368ZM131.05 42.9925H132.81C133.304 42.9925 133.686 42.8767 133.956 42.6451C134.234 42.4135 134.373 42.0893 134.373 41.6724C134.373 41.2555 134.23 40.9274 133.945 40.6881C133.659 40.4411 133.273 40.3176 132.787 40.3176H131.05V42.9925ZM139.841 44.139C139.277 44.139 138.776 44.0154 138.336 43.7684C137.903 43.5136 137.564 43.1624 137.317 42.7146C137.07 42.2669 136.946 41.7458 136.946 41.1513C136.946 40.5492 137.066 40.0203 137.305 39.5649C137.552 39.1094 137.892 38.7543 138.324 38.4995C138.764 38.2447 139.274 38.1174 139.853 38.1174C140.416 38.1174 140.906 38.2447 141.323 38.4995C141.74 38.7465 142.064 39.0785 142.296 39.4954C142.528 39.9123 142.643 40.3716 142.643 40.8734C142.643 40.9506 142.64 41.0355 142.632 41.1282C142.632 41.2131 142.628 41.3096 142.62 41.4177H138.15C138.189 41.9735 138.37 42.3981 138.695 42.6915C139.027 42.9771 139.409 43.1199 139.841 43.1199C140.188 43.1199 140.478 43.0427 140.71 42.8883C140.949 42.7262 141.126 42.51 141.242 42.2398H142.47C142.315 42.7802 142.007 43.2319 141.543 43.5947C141.088 43.9575 140.52 44.139 139.841 44.139ZM139.841 39.1248C139.432 39.1248 139.069 39.2483 138.753 39.4954C138.436 39.7347 138.243 40.0975 138.174 40.5839H141.416C141.393 40.1361 141.235 39.781 140.941 39.5185C140.648 39.2561 140.281 39.1248 139.841 39.1248ZM146.41 44C145.847 44 145.399 43.8649 145.067 43.5947C144.735 43.3168 144.569 42.8266 144.569 42.124V39.2869H143.585V38.2563H144.569L144.72 36.7972H145.797V38.2563H147.418V39.2869H145.797V42.124C145.797 42.4406 145.862 42.6606 145.993 42.7841C146.132 42.8999 146.368 42.9578 146.7 42.9578H147.36V44H146.41ZM150.86 44.139C150.374 44.139 149.973 44.0579 149.656 43.8958C149.34 43.7337 149.104 43.5214 148.95 43.2589C148.795 42.9887 148.718 42.6953 148.718 42.3788C148.718 41.823 148.934 41.3829 149.367 41.0587C149.799 40.7344 150.417 40.5723 151.219 40.5723H152.725V40.4681C152.725 40.0203 152.601 39.6845 152.354 39.4606C152.115 39.2368 151.802 39.1248 151.416 39.1248C151.077 39.1248 150.779 39.2097 150.525 39.3796C150.278 39.5417 150.127 39.7849 150.073 40.1091H148.845C148.884 39.6922 149.023 39.3371 149.262 39.0438C149.509 38.7427 149.818 38.5149 150.189 38.3605C150.567 38.1984 150.98 38.1174 151.428 38.1174C152.231 38.1174 152.852 38.3297 153.292 38.7543C153.732 39.1711 153.952 39.7424 153.952 40.4681V44H152.887L152.783 43.0157C152.621 43.3322 152.385 43.5986 152.076 43.8147C151.768 44.0309 151.362 44.139 150.86 44.139ZM151.104 43.1431C151.436 43.1431 151.713 43.0659 151.937 42.9115C152.169 42.7494 152.347 42.5371 152.47 42.2746C152.601 42.0121 152.682 41.7226 152.713 41.4061H151.347C150.86 41.4061 150.513 41.491 150.305 41.6608C150.104 41.8307 150.003 42.043 150.003 42.2977C150.003 42.5602 150.1 42.7687 150.293 42.9231C150.494 43.0697 150.764 43.1431 151.104 43.1431Z" fill="#1A1717"/>
</svg>
